<svg xmlns="http://www.w3.org/2000/svg" width="69.502" height="102.044" viewBox="0 0 69.502 102.044">
  <g id="Group_11637" data-name="Group 11637" transform="translate(-866.467 -3488.159)">
    <circle id="Ellipse_3" data-name="Ellipse 3" cx="10.902" cy="10.902" r="10.902" transform="translate(873.089 3568.398)" fill="#fff"/>
    <circle id="Ellipse_4" data-name="Ellipse 4" cx="10.902" cy="10.902" r="10.902" transform="translate(914.165 3488.159)" fill="#fff"/>
    <circle id="Ellipse_5" data-name="Ellipse 5" cx="27.742" cy="27.742" r="27.742" transform="translate(866.467 3490.923)" fill="#fff"/>
    <g id="Group_11636" data-name="Group 11636" transform="translate(870.348 3495.836)">
      <path id="Path_28" data-name="Path 28" d="M1299.353,5055.219a3.217,3.217,0,0,1-1.361,1.958,6.748,6.748,0,0,0-1.419.914c-.967,1.176-.769,2.059-.749,3.507.115,8.661,3.46,15.6,10.878,20.358-.559,1.255-1.716,1.159-2.775,1.165q-9.2.056-18.4,0c-1.066-.007-2.213.052-2.758-1.2,7.828-5.074,11-12.47,10.767-21.569a2.925,2.925,0,0,0-1.685-2.915,4.513,4.513,0,0,1-.584-7.372,1.186,1.186,0,0,1,1.542-.086c.034.109.068.219.1.328-.92,2.566-1.3,3.1-.139,4.361.352.381,1,.883,1.621,1.459-.085.349-.1.469.41.5.641.038.359-.282.369-.534a4.551,4.551,0,0,0,2.085-2.114,8.373,8.373,0,0,0,.143-3.021c.176-.335.4-.589.83-.482.147.189.5.457.652.646a1.823,1.823,0,0,1,.431.747A6.661,6.661,0,0,1,1299.353,5055.219Z" transform="translate(-1270.636 -4997.355)"/>
      <path id="Path_29" data-name="Path 29" d="M972.623,4019.5c5.334,6.469,10.474,13.35,15.349,20.164,2.647,3.7,4.25,3.652,6.963-.075,4.431-6.085,8.6-12.362,13.509-18.094.872-.122,1.244.238,1.079,1.117l-4.917,7.393a17.755,17.755,0,0,0-1.18,1.861c-.587.886-.535.9-1.39,2.139a96.344,96.344,0,0,0-10.109,19.468c-.224.509-.524.832-1.108.448-1.211-4.708-3.558-8.919-5.872-13.124-1.956-3.554-4.469-7.481-6.419-10.38-1.334-2.083-1.52-2.324-2.3-3.621-.077-.125-.147-.195-.192-.269-.073-.117-.123-.195-.2-.332-1.082-1.341-.627-.769-1.082-1.341-.235-.247-.181-.226-.325-.374l-.863-1.087-.677-.864c-2.242-2.733-3.514-4.067-5.127-6.212-.482-.641-.77-1.624.765-1.313.073.239.033.112.881,1.023,2.169,2.252,1.061,1.207,2.324,2.5C973.933,4020.917,972.359,4019.43,972.623,4019.5Z" transform="translate(-967.376 -4002.362)"/>
      <path id="Path_30" data-name="Path 30" d="M1234.377,5886.6a6.174,6.174,0,0,0,1.646.483q10.443.046,20.886-.006a5.03,5.03,0,0,0,1.4-.439l1.462.55c0,.917-.659.721-1.222.745-8.425.35-16.852.154-25.278.111a1.459,1.459,0,0,1-.834-.453C1232.867,5886.828,1233.729,5886.92,1234.377,5886.6Z" transform="translate(-1222.248 -5802.034)"/>
      <path id="Path_31" data-name="Path 31" d="M1492.337,5024.463l.043-.014a2.854,2.854,0,0,1,2.7.51l.018.014a1.047,1.047,0,0,1-.7.758,6.539,6.539,0,0,0-1.891.063c-.674.133-1.344.409-1.9.049l-1.67.75C1488.759,5025.493,1491.285,5024.393,1492.337,5024.463Z" transform="translate(-1468.875 -4972.907)"/>
      <path id="Path_32" data-name="Path 32" d="M1624.782,5041.983c.193-.17.747-.313.939-.482a5.919,5.919,0,0,1,1.369,1.058c-.189.231-.451.759-.641.99A1.98,1.98,0,0,1,1624.782,5041.983Z" transform="translate(-1599.499 -4989.439)"/>
      <path id="Path_33" data-name="Path 33" d="M1713,5108.583q-.021-1.676-.043-3.352A3.949,3.949,0,0,1,1713,5108.583Z" transform="translate(-1684.284 -5050.718)"/>
      <path id="Path_34" data-name="Path 34" d="M2036.808,4023.322a1.864,1.864,0,0,0-1.079-1.117,51.9,51.9,0,0,1,6.078-6.519l.63.51Z" transform="translate(-1994.642 -4003.075)"/>
      <path id="Path_35" data-name="Path 35" d="M1570.512,5203.527l.75-.031.6.646c-.637.99-1.28.913-1.927.051Z" transform="translate(-1546.757 -5145.204)"/>
      <circle id="Ellipse_6" data-name="Ellipse 6" cx="2.853" cy="2.853" r="2.853" transform="translate(21.244 52.719)" fill="none" stroke="#000" stroke-miterlimit="10" stroke-width="15"/>
      <circle id="Ellipse_7" data-name="Ellipse 7" cx="1.544" cy="1.544" r="1.544" transform="translate(10.031 11.96)" fill="#f5db56"/>
      <path id="Path_36" data-name="Path 36" d="M1285.052,3791.318a2.249,2.249,0,0,0,.5,1.083c.5.591,1.078,1.284,1.72,2.06,1.5,1.817,2.308,2.793,3.3,4.079a54.151,54.151,0,0,1,3.614,4.647,5.894,5.894,0,0,0,1.859,1.911,2.464,2.464,0,0,0,1.5.516,2.889,2.889,0,0,0,1.859-1.342c1.473-1.8,2.209-2.7,2.685-3.408,1.027-1.519.893-1.093,2.84-3.718,2.136-2.88,2.109-3.139,4.441-6.4,1.813-2.539,1.3-1.635,4.079-5.422a31.27,31.27,0,0,1,3.511-4.234c.738-.72,1.637-1.5,1.755-1.6a23.513,23.513,0,0,1,2.272-1.807,11.494,11.494,0,0,1,5.008-2.117,13.343,13.343,0,0,1,2.737-.362c.511-.008.368.029,2.53.155a6.906,6.906,0,0,0,2.375-.1,2.1,2.1,0,0,0,1.343-.723,1.831,1.831,0,0,0,.052-1.808,1.98,1.98,0,0,0-.929-.877,2.5,2.5,0,0,0-1.084-.207,7.081,7.081,0,0,0-2.065.413c-.78.2-.66.118-1.7.361-.411.1-1.467.345-2.582.723-1.02.346-1,.43-3.046,1.291-1.842.776-1.856.707-2.737,1.136a25.477,25.477,0,0,0-2.685,1.549c-1.077.683-1.064.741-2.943,2.014-1.6,1.082-1.862,1.213-2.736,1.858a17.048,17.048,0,0,0-2.065,1.653c-.632.687-.964,1.278-1.755,1.5a1.777,1.777,0,0,1-1.033,0,2.052,2.052,0,0,1-.981-.826,22.42,22.42,0,0,0-1.652-2.221,4.563,4.563,0,0,0-1.859-.981,5.989,5.989,0,0,0-2.22-.207,7.816,7.816,0,0,0-2.375.517,5.155,5.155,0,0,0-1.91,1.084,4.574,4.574,0,0,0-1.239,2.169,4.872,4.872,0,0,0-.1,2.065,3.35,3.35,0,0,0,.826,1.911,3.133,3.133,0,0,0,1.136.723,2.579,2.579,0,0,0,1.394.258,3.423,3.423,0,0,0,1.188-.517,2.706,2.706,0,0,0,.811-.761,2.434,2.434,0,0,0,.532-.995c.143-.409.158-.511.1-.568-.117-.122-.4.112-.981.207a1.756,1.756,0,0,1-1.136-.1.935.935,0,0,1-.516-.568.9.9,0,0,1,.155-.671,1.473,1.473,0,0,1,.878-.62,1.905,1.905,0,0,1,1.136.052,2.47,2.47,0,0,1,1.188.826,3.033,3.033,0,0,1,.465,2.014,7.614,7.614,0,0,1-1.239,3.924,8.515,8.515,0,0,1-2.065,2.117,8.093,8.093,0,0,1-1.6.981,7.394,7.394,0,0,1-1.7.516,7.666,7.666,0,0,1-2.943-.052,14.755,14.755,0,0,1-2.53-.981c-1.194-.525-1.225-.616-2.065-.929-.67-.25-.977-.314-1.962-.671-.571-.207-1.035-.391-1.342-.516Z" transform="translate(-1272.834 -3768.415)" fill="#f5db56"/>
      <path id="Path_37" data-name="Path 37" d="M1965.279,3924.212a3.312,3.312,0,0,0-1.084.62,3.086,3.086,0,0,0-.7.9c-.161.3-.356.664-.232.8.139.154.615-.057.955-.207a3.608,3.608,0,0,0,.671-.387,3.764,3.764,0,0,0,.594-.542,2.953,2.953,0,0,0,.542-.774c.116-.25.215-.466.129-.568C1966.037,3923.914,1965.628,3924.075,1965.279,3924.212Z" transform="translate(-1924.928 -3914.917)" fill="#f5db56"/>
      <path id="Path_38" data-name="Path 38" d="M2062.426,3690.008a4.1,4.1,0,0,1-.749.7,6.4,6.4,0,0,1-1.291.671c-.6.258-.589.227-1.291.516-.771.319-.854.387-1.678.723-.609.249-.588.221-.826.335-.671.323-.72.387-1.355.723-.617.326-.665.321-1.33.7a7.264,7.264,0,0,0-.8.517,7.14,7.14,0,0,1-.961.556,3.132,3.132,0,0,1-1.046.413c-.4.06-.19.038-1.014.141-.19.024-.289.014-.336-.052-.119-.167.251-.62.594-1.033a13.394,13.394,0,0,1,1.084-1.136c.244-.235.55-.529.981-.9.472-.41.85-.706,1.136-.929.648-.506.665-.481,1.084-.826.6-.494.577-.554,1.032-.9a9.477,9.477,0,0,1,1.213-.775c.515-.289.906-.466,1.42-.7a14.481,14.481,0,0,1,1.394-.568,8.681,8.681,0,0,1,1.188-.31,1.933,1.933,0,0,1,.981-.026,1.269,1.269,0,0,1,.594.361,1.361,1.361,0,0,1,.284.542,1.279,1.279,0,0,1,.077.568A1.367,1.367,0,0,1,2062.426,3690.008Z" transform="translate(-2008.101 -3687.79)" fill="#f5db56"/>
      <path id="Path_39" data-name="Path 39" d="M1155.589,3938.151a5.455,5.455,0,0,0-1.274-.035,6.391,6.391,0,0,0-1.962.275,5.2,5.2,0,0,0-1.411.757,4.8,4.8,0,0,0-1.446,1.446,4.326,4.326,0,0,0-.619,2.031,5.347,5.347,0,0,0,.447,2.2,8.456,8.456,0,0,0,1.067,2.1,7.709,7.709,0,0,0,1.274,1.376,6.041,6.041,0,0,0,1.893,1.17,6.483,6.483,0,0,0,1.721.345,10.36,10.36,0,0,0,2.065,0,5.107,5.107,0,0,0,1.859-.345,5.323,5.323,0,0,0,1.512-1.326,5.139,5.139,0,0,0,.9-1.359,3.329,3.329,0,0,0-.034-3.821,8.259,8.259,0,0,0-1.1-1.583,9.081,9.081,0,0,0-1.515-1.549,9.642,9.642,0,0,0-1.721-1.033A5.428,5.428,0,0,0,1155.589,3938.151Z" transform="translate(-1141.891 -3928.471)" fill="#f5db56"/>
      <path id="Path_40" data-name="Path 40" d="M1196.758,3985.533a2.113,2.113,0,0,0-1.291.052c-.087.04-.772.353-.826.981a1.271,1.271,0,0,0,.465.981,1.649,1.649,0,0,0,.878.413,1.631,1.631,0,0,0,1.033-.1,1.435,1.435,0,0,0,.774-.878,1.214,1.214,0,0,0-.258-1.188A1.337,1.337,0,0,0,1196.758,3985.533Z" transform="translate(-1185.897 -3974.011)" fill="#fff"/>
      <path id="Path_41" data-name="Path 41" d="M1484.179,4456.715s.8,1.246,1.8,2.7a13,13,0,0,0,1.437,1.773,1.5,1.5,0,0,0,1.033.619,1.265,1.265,0,0,0,.757-.309,8.43,8.43,0,0,0,1.515-1.377,16.491,16.491,0,0,0,1.48-2.168c.976-1.681,1.021-1.8.964-1.859-.143-.157-.775.092-1.2.482-.4.358-.332.573-.861,1.342a7.465,7.465,0,0,1-.826,1,3.764,3.764,0,0,1-1.033.827,1.68,1.68,0,0,1-1,.275c-.3-.042-.452-.2-1.2-1a8.663,8.663,0,0,1-1.213-1.463,6.851,6.851,0,0,0-.929-1.033c-.39-.3-.527-.478-.955-.224C1483.869,4456.343,1484.084,4456.6,1484.179,4456.715Z" transform="translate(-1464.059 -4426.502)" fill="#fff"/>
    </g>
  </g>
</svg>
